<svg preserveAspectRatio="none" overflow="visible" style="display: block;" width="25.6667" height="25.6667" viewBox="0 0 25.6667 25.6667" fill="none" xmlns="http://www.w3.org/2000/svg">
<g id="Container">
<path id="Icon" d="M11.6667 3.5V0H14V3.5H11.6667V3.5M11.6667 25.6667V22.1667H14V25.6667H11.6667V25.6667M22.1667 14V11.6667H25.6667V14H22.1667V14M0 14V11.6667H3.5V14H0V14M20.65 6.65L19.0167 5.01667L21.0583 2.91667L22.75 4.60833L20.65 6.65V6.65M4.60833 22.75L2.91667 21.0583L5.01667 19.0167L6.65 20.65L4.60833 22.75V22.75M21.0583 22.75L19.0167 20.65L20.65 19.0167L22.75 21.0583L21.0583 22.75V22.75M5.01667 6.65L2.91667 4.60833L4.60833 2.91667L6.65 5.01667L5.01667 6.65V6.65M12.8333 19.8333C10.8889 19.8333 9.23611 19.1528 7.875 17.7917C6.51389 16.4306 5.83333 14.7778 5.83333 12.8333C5.83333 10.8889 6.51389 9.23611 7.875 7.875C9.23611 6.51389 10.8889 5.83333 12.8333 5.83333C14.7778 5.83333 16.4306 6.51389 17.7917 7.875C19.1528 9.23611 19.8333 10.8889 19.8333 12.8333C19.8333 14.7778 19.1528 16.4306 17.7917 17.7917C16.4306 19.1528 14.7778 19.8333 12.8333 19.8333V19.8333M12.8333 17.5C14.1361 17.5 15.2396 17.0479 16.1437 16.1437C17.0479 15.2396 17.5 14.1361 17.5 12.8333C17.5 11.5306 17.0479 10.4271 16.1437 9.52292C15.2396 8.61875 14.1361 8.16667 12.8333 8.16667C11.5306 8.16667 10.4271 8.61875 9.52292 9.52292C8.61875 10.4271 8.16667 11.5306 8.16667 12.8333C8.16667 14.1361 8.61875 15.2396 9.52292 16.1437C10.4271 17.0479 11.5306 17.5 12.8333 17.5V17.5M12.8333 12.8333V12.8333V12.8333V12.8333V12.8333V12.8333V12.8333V12.8333V12.8333V12.8333" fill="#6B4B00"/>
</g>
</svg>
