<svg preserveAspectRatio="none" overflow="visible" style="display: block;" width="23.3333" height="23.3333" viewBox="0 0 23.3333 23.3333" fill="none" xmlns="http://www.w3.org/2000/svg">
<g id="Container">
<path id="Icon" d="M11.7833 23.3333C10.15 23.3333 8.61875 23.0222 7.18958 22.4C5.76042 21.7778 4.51597 20.9368 3.45625 19.8771C2.39653 18.8174 1.55556 17.5729 0.933333 16.1437C0.311111 14.7146 0 13.1833 0 11.55C0 8.71111 0.904167 6.20764 2.7125 4.03958C4.52083 1.87153 6.825 0.525 9.625 0C9.275 1.925 9.38194 3.80625 9.94583 5.64375C10.5097 7.48125 11.4819 9.09028 12.8625 10.4708C14.2431 11.8514 15.8521 12.8236 17.6896 13.3875C19.5271 13.9514 21.4083 14.0583 23.3333 13.7083C22.8278 16.5083 21.4861 18.8125 19.3083 20.6208C17.1306 22.4292 14.6222 23.3333 11.7833 23.3333V23.3333M11.7833 21C13.4944 21 15.0792 20.5722 16.5375 19.7167C17.9958 18.8611 19.1431 17.6847 19.9792 16.1875C18.3069 16.0319 16.7222 15.609 15.225 14.9187C13.7278 14.2285 12.3861 13.2903 11.2 12.1042C10.0139 10.9181 9.07083 9.57639 8.37083 8.07917C7.67083 6.58194 7.25278 4.99722 7.11667 3.325C5.61944 4.16111 4.44792 5.31319 3.60208 6.78125C2.75625 8.24931 2.33333 9.83889 2.33333 11.55C2.33333 14.175 3.25208 16.4062 5.08958 18.2437C6.92708 20.0812 9.15833 21 11.7833 21V21M11.2 12.1042V12.1042V12.1042V12.1042V12.1042V12.1042V12.1042V12.1042V12.1042V12.1042V12.1042V12.1042" fill="#003060"/>
</g>
</svg>
